<svg xmlns="http://www.w3.org/2000/svg" viewBox="-76.0 -294.8 1144.8 389.8"><title>Cozy Acres</title><defs><linearGradient id="lgcream" x1="0" y1="-140.8" x2="0" y2="0" gradientUnits="userSpaceOnUse"><stop offset="0" stop-color="#fffdf4"/><stop offset=".55" stop-color="#fff6df"/><stop offset="1" stop-color="#f7e6bd"/></linearGradient><linearGradient id="lggreen" x1="0" y1="-140.8" x2="0" y2="0" gradientUnits="userSpaceOnUse"><stop offset="0" stop-color="#9ee07a"/><stop offset="1" stop-color="#6cc644"/></linearGradient><linearGradient id="lgyel" x1="0" y1="-140.8" x2="0" y2="0" gradientUnits="userSpaceOnUse"><stop offset="0" stop-color="#ffe07a"/><stop offset="1" stop-color="#ffc93c"/></linearGradient><linearGradient id="lgshade" x1="0" y1="0" x2="0" y2="1"><stop offset=".7" stop-color="#000" stop-opacity="0"/><stop offset="1" stop-color="#8a5528" stop-opacity=".18"/></linearGradient></defs><g transform="translate(954.8000000000002,-158.8)"><rect x="-9" y="-80" width="18" height="26" rx="9" fill="#ffc93c" stroke="#2d1e10" stroke-width="8.399999999999999" transform="rotate(0)"/><rect x="-9" y="-80" width="18" height="26" rx="9" fill="#ffc93c" stroke="#2d1e10" stroke-width="8.399999999999999" transform="rotate(36)"/><rect x="-9" y="-80" width="18" height="26" rx="9" fill="#ffc93c" stroke="#2d1e10" stroke-width="8.399999999999999" transform="rotate(72)"/><rect x="-9" y="-80" width="18" height="26" rx="9" fill="#ffc93c" stroke="#2d1e10" stroke-width="8.399999999999999" transform="rotate(108)"/><rect x="-9" y="-80" width="18" height="26" rx="9" fill="#ffc93c" stroke="#2d1e10" stroke-width="8.399999999999999" transform="rotate(144)"/><rect x="-9" y="-80" width="18" height="26" rx="9" fill="#ffc93c" stroke="#2d1e10" stroke-width="8.399999999999999" transform="rotate(180)"/><rect x="-9" y="-80" width="18" height="26" rx="9" fill="#ffc93c" stroke="#2d1e10" stroke-width="8.399999999999999" transform="rotate(216)"/><rect x="-9" y="-80" width="18" height="26" rx="9" fill="#ffc93c" stroke="#2d1e10" stroke-width="8.399999999999999" transform="rotate(252)"/><rect x="-9" y="-80" width="18" height="26" rx="9" fill="#ffc93c" stroke="#2d1e10" stroke-width="8.399999999999999" transform="rotate(288)"/><rect x="-9" y="-80" width="18" height="26" rx="9" fill="#ffc93c" stroke="#2d1e10" stroke-width="8.399999999999999" transform="rotate(324)"/><circle r="46" fill="#ffc93c" stroke="#2d1e10" stroke-width="12"/><circle r="33.12" fill="#ffdb6e"/><path d="M-25.3,-11.5 a27.599999999999998,27.599999999999998 0 0 1 20.7,-18.400000000000002" stroke="#fff3c4" stroke-width="5.52" fill="none" stroke-linecap="round"/></g><path d="M89.80000000000001 -99.0Q88.80000000000001 -99.0 87.5 -100.1Q86.2 -101.2 81.5 -102.5Q76.80000000000001 -103.80000000000001 73.4 -103.80000000000001Q61.800000000000004 -103.80000000000001 54.7 -95.60000000000001Q47.6 -87.4 47.6 -70.5Q47.6 -53.6 54.900000000000006 -45.400000000000006Q62.2 -37.2 73.4 -37.2Q78.0 -37.2 83.7 -38.5Q89.4 -39.800000000000004 91.80000000000001 -42.2Q92.2 -42.6 93.4 -42.6Q94.60000000000001 -42.6 97.9 -38.1Q101.2 -33.6 104.0 -26.3Q106.80000000000001 -19.0 106.80000000000001 -15.0Q106.80000000000001 -7.2 94.80000000000001 -2.6Q82.80000000000001 2.0 66.4 2.0Q40.0 2.0 23.0 -16.6Q6.0 -35.2 6.0 -69.1Q6.0 -103.0 23.5 -122.4Q41.0 -141.8 67.2 -141.8Q81.80000000000001 -141.8 92.9 -137.7Q104.0 -133.6 104.0 -126.6Q104.0 -119.60000000000001 98.7 -109.30000000000001Q93.4 -99.0 89.80000000000001 -99.0Z M133.9 -11.8Q121.4 -25.6 121.4 -50.0Q121.4 -74.4 133.9 -88.2Q146.4 -102.0 167.60000000000002 -102.0Q188.8 -102.0 201.20000000000002 -88.2Q213.60000000000002 -74.4 213.60000000000002 -50.0Q213.60000000000002 -25.6 201.20000000000002 -11.8Q188.8 2.0 167.60000000000002 2.0Q146.4 2.0 133.9 -11.8ZM167.7 -68.60000000000001Q156.4 -68.60000000000001 156.4 -50.2Q156.4 -31.8 167.7 -31.8Q179.0 -31.8 179.0 -50.2Q179.0 -68.60000000000001 167.7 -68.60000000000001Z M231.4 -68.0Q230.0 -68.0 230.0 -76.60000000000001Q230.0 -100.0 233.8 -100.0H297.6Q299.0 -100.0 303.8 -91.2Q308.6 -82.4 308.6 -81.30000000000001Q308.6 -80.2 308.40000000000003 -80.0L269.6 -31.200000000000003L304.40000000000003 -33.6Q307.6 -33.6 307.6 -19.400000000000002Q307.6 -14.0 306.6 -7.0Q305.6 0.0 303.20000000000005 0.0H239.20000000000002Q236.20000000000002 0.0 232.0 -10.0Q227.8 -20.0 227.8 -22.1Q227.8 -24.200000000000003 228.20000000000002 -24.6L266.40000000000003 -69.2Z M319.6 -99.0Q319.6 -101.2 337.90000000000003 -101.2Q356.20000000000005 -101.2 356.8 -99.2L371.20000000000005 -52.0L385.0 -99.60000000000001Q385.8 -101.2 397.40000000000003 -101.2Q424.0 -101.2 422.8 -98.60000000000001L375.8 35.2Q375.6 36.4 364.90000000000003 36.4Q354.20000000000005 36.4 345.0 35.7Q335.8 35.0 336.20000000000005 34.0L353.6 -8.0Z" transform="translate(0,15.0)" fill="#fff6df" stroke="#fff6df" stroke-width="52.0" stroke-linejoin="round"/><path d="M89.80000000000001 -99.0Q88.80000000000001 -99.0 87.5 -100.1Q86.2 -101.2 81.5 -102.5Q76.80000000000001 -103.80000000000001 73.4 -103.80000000000001Q61.800000000000004 -103.80000000000001 54.7 -95.60000000000001Q47.6 -87.4 47.6 -70.5Q47.6 -53.6 54.900000000000006 -45.400000000000006Q62.2 -37.2 73.4 -37.2Q78.0 -37.2 83.7 -38.5Q89.4 -39.800000000000004 91.80000000000001 -42.2Q92.2 -42.6 93.4 -42.6Q94.60000000000001 -42.6 97.9 -38.1Q101.2 -33.6 104.0 -26.3Q106.80000000000001 -19.0 106.80000000000001 -15.0Q106.80000000000001 -7.2 94.80000000000001 -2.6Q82.80000000000001 2.0 66.4 2.0Q40.0 2.0 23.0 -16.6Q6.0 -35.2 6.0 -69.1Q6.0 -103.0 23.5 -122.4Q41.0 -141.8 67.2 -141.8Q81.80000000000001 -141.8 92.9 -137.7Q104.0 -133.6 104.0 -126.6Q104.0 -119.60000000000001 98.7 -109.30000000000001Q93.4 -99.0 89.80000000000001 -99.0Z M133.9 -11.8Q121.4 -25.6 121.4 -50.0Q121.4 -74.4 133.9 -88.2Q146.4 -102.0 167.60000000000002 -102.0Q188.8 -102.0 201.20000000000002 -88.2Q213.60000000000002 -74.4 213.60000000000002 -50.0Q213.60000000000002 -25.6 201.20000000000002 -11.8Q188.8 2.0 167.60000000000002 2.0Q146.4 2.0 133.9 -11.8ZM167.7 -68.60000000000001Q156.4 -68.60000000000001 156.4 -50.2Q156.4 -31.8 167.7 -31.8Q179.0 -31.8 179.0 -50.2Q179.0 -68.60000000000001 167.7 -68.60000000000001Z M231.4 -68.0Q230.0 -68.0 230.0 -76.60000000000001Q230.0 -100.0 233.8 -100.0H297.6Q299.0 -100.0 303.8 -91.2Q308.6 -82.4 308.6 -81.30000000000001Q308.6 -80.2 308.40000000000003 -80.0L269.6 -31.200000000000003L304.40000000000003 -33.6Q307.6 -33.6 307.6 -19.400000000000002Q307.6 -14.0 306.6 -7.0Q305.6 0.0 303.20000000000005 0.0H239.20000000000002Q236.20000000000002 0.0 232.0 -10.0Q227.8 -20.0 227.8 -22.1Q227.8 -24.200000000000003 228.20000000000002 -24.6L266.40000000000003 -69.2Z M319.6 -99.0Q319.6 -101.2 337.90000000000003 -101.2Q356.20000000000005 -101.2 356.8 -99.2L371.20000000000005 -52.0L385.0 -99.60000000000001Q385.8 -101.2 397.40000000000003 -101.2Q424.0 -101.2 422.8 -98.60000000000001L375.8 35.2Q375.6 36.4 364.90000000000003 36.4Q354.20000000000005 36.4 345.0 35.7Q335.8 35.0 336.20000000000005 34.0L353.6 -8.0Z" fill="#fff6df" stroke="#fff6df" stroke-width="52.0" stroke-linejoin="round"/><path d="M570.6 0.4Q553.2 0.4 551.8000000000001 -5.2L545.2 -31.0H513.4L507.6 -6.2Q506.40000000000003 0.0 488.40000000000003 0.0Q478.8 0.0 474.20000000000005 -1.1Q469.6 -2.2 469.6 -2.8000000000000003L505.0 -138.20000000000002Q505.0 -139.8 532.4000000000001 -139.8Q559.8000000000001 -139.8 559.8000000000001 -138.20000000000002L594.4000000000001 -2.6Q594.4000000000001 -1.2000000000000002 585.2 -0.4000000000000001Q576.0 0.4 570.6 0.4ZM518.4 -56.400000000000006H539.4L530.4 -97.80000000000001H529.2Z M643.4 -49.6Q643.4 -30.0 658.2 -30.0Q667.8000000000001 -30.0 674.2 -33.800000000000004Q677.2 -33.800000000000004 679.1 -23.500000000000004Q681.0 -13.200000000000001 681.0 -9.5Q681.0 -5.800000000000001 680.0 -4.6000000000000005Q669.4 2.0 651.0 2.0Q632.6 2.0 619.7 -11.700000000000001Q606.8000000000001 -25.400000000000002 606.8000000000001 -49.1Q606.8000000000001 -72.8 619.5 -87.4Q632.2 -102.0 653.3 -102.0Q674.4 -102.0 682.6 -91.80000000000001Q684.4000000000001 -89.60000000000001 684.4000000000001 -85.30000000000001Q684.4000000000001 -81.0 682.8000000000001 -74.8Q679.2 -62.0 673.4 -60.0Q672.6 -59.800000000000004 671.1 -59.800000000000004Q669.6 -59.800000000000004 667.4 -62.2Q659.6 -70.0 654.9000000000001 -70.0Q650.2 -70.0 646.8 -65.2Q643.4 -60.400000000000006 643.4 -49.6Z M743.2 -0.2Q743.2 1.2000000000000002 725.0000000000001 1.2000000000000002Q706.8000000000001 0.8 706.8000000000001 -0.4V-66.8H701.4000000000001Q698.2 -66.8 696.3000000000001 -70.7Q694.4000000000001 -74.60000000000001 694.4000000000001 -80.4Q694.4000000000001 -102.0 707.2 -102.0Q716.2 -102.0 722.2 -96.5Q728.2 -91.0 728.2 -84.0Q732.4000000000001 -92.2 739.5000000000001 -97.1Q746.6000000000001 -102.0 754.0000000000001 -102.0Q765.6000000000001 -102.0 768.0000000000001 -96.0Q768.6000000000001 -94.4 768.6000000000001 -91.30000000000001Q768.6000000000001 -88.2 766.7 -80.2Q764.8000000000001 -72.2 762.8000000000001 -68.6Q760.8000000000001 -65.0 760.4000000000001 -65.0Q760.0000000000001 -65.0 756.7 -66.5Q753.4000000000001 -68.0 750.8000000000001 -68.0Q743.2 -68.0 743.2 -56.0Z M858.2000000000002 -5.4Q845.6000000000001 2.0 825.8000000000002 2.0Q806.0000000000001 2.0 792.4000000000001 -11.5Q778.8000000000002 -25.0 778.8000000000002 -48.9Q778.8000000000002 -72.8 791.9000000000001 -87.4Q805.0000000000001 -102.0 825.0000000000001 -102.0Q845.0000000000001 -102.0 855.9000000000001 -91.80000000000001Q866.8000000000002 -81.60000000000001 866.8000000000002 -67.0Q866.8000000000002 -34.6 829.6000000000001 -34.6H815.8000000000002Q815.8000000000002 -28.6 819.1000000000001 -26.3Q822.4000000000001 -24.0 828.8000000000002 -24.0Q842.8000000000002 -24.0 855.4000000000001 -30.400000000000002Q855.6000000000001 -30.6 857.2000000000002 -27.6Q862.0000000000001 -19.0 862.0000000000001 -13.1Q862.0000000000001 -7.2 858.2000000000002 -5.4ZM833.2000000000002 -63.2Q833.2000000000002 -71.60000000000001 825.0000000000001 -71.60000000000001Q821.2000000000002 -71.60000000000001 818.5000000000002 -69.30000000000001Q815.8000000000002 -67.0 815.8000000000002 -62.6V-56.400000000000006H826.6000000000001Q833.2000000000002 -56.400000000000006 833.2000000000002 -63.2Z M888.0000000000002 -36.0Q904.2000000000002 -26.200000000000003 913.6000000000001 -26.200000000000003Q919.6000000000001 -26.200000000000003 919.6000000000001 -30.400000000000002Q919.6000000000001 -33.4 909.2000000000002 -38.2Q884.2000000000002 -48.400000000000006 884.2000000000002 -71.60000000000001Q884.2000000000002 -86.4 895.0000000000002 -94.2Q905.8000000000002 -102.0 920.9000000000002 -102.0Q936.0000000000002 -102.0 946.5000000000002 -98.80000000000001Q957.0000000000002 -95.60000000000001 957.0000000000002 -90.4Q957.0000000000002 -86.0 952.7000000000003 -78.80000000000001Q948.4000000000002 -71.60000000000001 946.8000000000002 -71.0Q938.2000000000002 -75.8 928.2000000000002 -75.8Q922.8000000000002 -75.8 922.8000000000002 -72.0Q922.8000000000002 -69.60000000000001 924.9000000000002 -67.9Q927.0000000000002 -66.2 932.6000000000001 -63.7Q938.2000000000002 -61.2 941.9000000000001 -59.2Q945.6000000000001 -57.2 950.2000000000002 -53.6Q959.8000000000002 -46.0 959.8000000000002 -33.800000000000004Q959.8000000000002 -17.8 949.2000000000002 -7.9Q938.6000000000001 2.0 917.2000000000002 2.0Q903.0000000000002 2.0 891.4000000000002 -2.8000000000000003Q879.8000000000002 -7.6000000000000005 879.8000000000002 -16.0Q879.8000000000002 -21.6 882.5000000000002 -27.8Q885.2000000000002 -34.0 888.0000000000002 -36.0Z" transform="translate(0,15.0)" fill="#fff6df" stroke="#fff6df" stroke-width="52.0" stroke-linejoin="round"/><path d="M570.6 0.4Q553.2 0.4 551.8000000000001 -5.2L545.2 -31.0H513.4L507.6 -6.2Q506.40000000000003 0.0 488.40000000000003 0.0Q478.8 0.0 474.20000000000005 -1.1Q469.6 -2.2 469.6 -2.8000000000000003L505.0 -138.20000000000002Q505.0 -139.8 532.4000000000001 -139.8Q559.8000000000001 -139.8 559.8000000000001 -138.20000000000002L594.4000000000001 -2.6Q594.4000000000001 -1.2000000000000002 585.2 -0.4000000000000001Q576.0 0.4 570.6 0.4ZM518.4 -56.400000000000006H539.4L530.4 -97.80000000000001H529.2Z M643.4 -49.6Q643.4 -30.0 658.2 -30.0Q667.8000000000001 -30.0 674.2 -33.800000000000004Q677.2 -33.800000000000004 679.1 -23.500000000000004Q681.0 -13.200000000000001 681.0 -9.5Q681.0 -5.800000000000001 680.0 -4.6000000000000005Q669.4 2.0 651.0 2.0Q632.6 2.0 619.7 -11.700000000000001Q606.8000000000001 -25.400000000000002 606.8000000000001 -49.1Q606.8000000000001 -72.8 619.5 -87.4Q632.2 -102.0 653.3 -102.0Q674.4 -102.0 682.6 -91.80000000000001Q684.4000000000001 -89.60000000000001 684.4000000000001 -85.30000000000001Q684.4000000000001 -81.0 682.8000000000001 -74.8Q679.2 -62.0 673.4 -60.0Q672.6 -59.800000000000004 671.1 -59.800000000000004Q669.6 -59.800000000000004 667.4 -62.2Q659.6 -70.0 654.9000000000001 -70.0Q650.2 -70.0 646.8 -65.2Q643.4 -60.400000000000006 643.4 -49.6Z M743.2 -0.2Q743.2 1.2000000000000002 725.0000000000001 1.2000000000000002Q706.8000000000001 0.8 706.8000000000001 -0.4V-66.8H701.4000000000001Q698.2 -66.8 696.3000000000001 -70.7Q694.4000000000001 -74.60000000000001 694.4000000000001 -80.4Q694.4000000000001 -102.0 707.2 -102.0Q716.2 -102.0 722.2 -96.5Q728.2 -91.0 728.2 -84.0Q732.4000000000001 -92.2 739.5000000000001 -97.1Q746.6000000000001 -102.0 754.0000000000001 -102.0Q765.6000000000001 -102.0 768.0000000000001 -96.0Q768.6000000000001 -94.4 768.6000000000001 -91.30000000000001Q768.6000000000001 -88.2 766.7 -80.2Q764.8000000000001 -72.2 762.8000000000001 -68.6Q760.8000000000001 -65.0 760.4000000000001 -65.0Q760.0000000000001 -65.0 756.7 -66.5Q753.4000000000001 -68.0 750.8000000000001 -68.0Q743.2 -68.0 743.2 -56.0Z M858.2000000000002 -5.4Q845.6000000000001 2.0 825.8000000000002 2.0Q806.0000000000001 2.0 792.4000000000001 -11.5Q778.8000000000002 -25.0 778.8000000000002 -48.9Q778.8000000000002 -72.8 791.9000000000001 -87.4Q805.0000000000001 -102.0 825.0000000000001 -102.0Q845.0000000000001 -102.0 855.9000000000001 -91.80000000000001Q866.8000000000002 -81.60000000000001 866.8000000000002 -67.0Q866.8000000000002 -34.6 829.6000000000001 -34.6H815.8000000000002Q815.8000000000002 -28.6 819.1000000000001 -26.3Q822.4000000000001 -24.0 828.8000000000002 -24.0Q842.8000000000002 -24.0 855.4000000000001 -30.400000000000002Q855.6000000000001 -30.6 857.2000000000002 -27.6Q862.0000000000001 -19.0 862.0000000000001 -13.1Q862.0000000000001 -7.2 858.2000000000002 -5.4ZM833.2000000000002 -63.2Q833.2000000000002 -71.60000000000001 825.0000000000001 -71.60000000000001Q821.2000000000002 -71.60000000000001 818.5000000000002 -69.30000000000001Q815.8000000000002 -67.0 815.8000000000002 -62.6V-56.400000000000006H826.6000000000001Q833.2000000000002 -56.400000000000006 833.2000000000002 -63.2Z M888.0000000000002 -36.0Q904.2000000000002 -26.200000000000003 913.6000000000001 -26.200000000000003Q919.6000000000001 -26.200000000000003 919.6000000000001 -30.400000000000002Q919.6000000000001 -33.4 909.2000000000002 -38.2Q884.2000000000002 -48.400000000000006 884.2000000000002 -71.60000000000001Q884.2000000000002 -86.4 895.0000000000002 -94.2Q905.8000000000002 -102.0 920.9000000000002 -102.0Q936.0000000000002 -102.0 946.5000000000002 -98.80000000000001Q957.0000000000002 -95.60000000000001 957.0000000000002 -90.4Q957.0000000000002 -86.0 952.7000000000003 -78.80000000000001Q948.4000000000002 -71.60000000000001 946.8000000000002 -71.0Q938.2000000000002 -75.8 928.2000000000002 -75.8Q922.8000000000002 -75.8 922.8000000000002 -72.0Q922.8000000000002 -69.60000000000001 924.9000000000002 -67.9Q927.0000000000002 -66.2 932.6000000000001 -63.7Q938.2000000000002 -61.2 941.9000000000001 -59.2Q945.6000000000001 -57.2 950.2000000000002 -53.6Q959.8000000000002 -46.0 959.8000000000002 -33.800000000000004Q959.8000000000002 -17.8 949.2000000000002 -7.9Q938.6000000000001 2.0 917.2000000000002 2.0Q903.0000000000002 2.0 891.4000000000002 -2.8000000000000003Q879.8000000000002 -7.6000000000000005 879.8000000000002 -16.0Q879.8000000000002 -21.6 882.5000000000002 -27.8Q885.2000000000002 -34.0 888.0000000000002 -36.0Z" fill="#fff6df" stroke="#fff6df" stroke-width="52.0" stroke-linejoin="round"/><path d="M89.80000000000001 -99.0Q88.80000000000001 -99.0 87.5 -100.1Q86.2 -101.2 81.5 -102.5Q76.80000000000001 -103.80000000000001 73.4 -103.80000000000001Q61.800000000000004 -103.80000000000001 54.7 -95.60000000000001Q47.6 -87.4 47.6 -70.5Q47.6 -53.6 54.900000000000006 -45.400000000000006Q62.2 -37.2 73.4 -37.2Q78.0 -37.2 83.7 -38.5Q89.4 -39.800000000000004 91.80000000000001 -42.2Q92.2 -42.6 93.4 -42.6Q94.60000000000001 -42.6 97.9 -38.1Q101.2 -33.6 104.0 -26.3Q106.80000000000001 -19.0 106.80000000000001 -15.0Q106.80000000000001 -7.2 94.80000000000001 -2.6Q82.80000000000001 2.0 66.4 2.0Q40.0 2.0 23.0 -16.6Q6.0 -35.2 6.0 -69.1Q6.0 -103.0 23.5 -122.4Q41.0 -141.8 67.2 -141.8Q81.80000000000001 -141.8 92.9 -137.7Q104.0 -133.6 104.0 -126.6Q104.0 -119.60000000000001 98.7 -109.30000000000001Q93.4 -99.0 89.80000000000001 -99.0Z M133.9 -11.8Q121.4 -25.6 121.4 -50.0Q121.4 -74.4 133.9 -88.2Q146.4 -102.0 167.60000000000002 -102.0Q188.8 -102.0 201.20000000000002 -88.2Q213.60000000000002 -74.4 213.60000000000002 -50.0Q213.60000000000002 -25.6 201.20000000000002 -11.8Q188.8 2.0 167.60000000000002 2.0Q146.4 2.0 133.9 -11.8ZM167.7 -68.60000000000001Q156.4 -68.60000000000001 156.4 -50.2Q156.4 -31.8 167.7 -31.8Q179.0 -31.8 179.0 -50.2Q179.0 -68.60000000000001 167.7 -68.60000000000001Z M231.4 -68.0Q230.0 -68.0 230.0 -76.60000000000001Q230.0 -100.0 233.8 -100.0H297.6Q299.0 -100.0 303.8 -91.2Q308.6 -82.4 308.6 -81.30000000000001Q308.6 -80.2 308.40000000000003 -80.0L269.6 -31.200000000000003L304.40000000000003 -33.6Q307.6 -33.6 307.6 -19.400000000000002Q307.6 -14.0 306.6 -7.0Q305.6 0.0 303.20000000000005 0.0H239.20000000000002Q236.20000000000002 0.0 232.0 -10.0Q227.8 -20.0 227.8 -22.1Q227.8 -24.200000000000003 228.20000000000002 -24.6L266.40000000000003 -69.2Z M319.6 -99.0Q319.6 -101.2 337.90000000000003 -101.2Q356.20000000000005 -101.2 356.8 -99.2L371.20000000000005 -52.0L385.0 -99.60000000000001Q385.8 -101.2 397.40000000000003 -101.2Q424.0 -101.2 422.8 -98.60000000000001L375.8 35.2Q375.6 36.4 364.90000000000003 36.4Q354.20000000000005 36.4 345.0 35.7Q335.8 35.0 336.20000000000005 34.0L353.6 -8.0Z" transform="translate(0,15.0)" fill="#2d1e10" stroke="#2d1e10" stroke-width="32.0" stroke-linejoin="round"/><path d="M570.6 0.4Q553.2 0.4 551.8000000000001 -5.2L545.2 -31.0H513.4L507.6 -6.2Q506.40000000000003 0.0 488.40000000000003 0.0Q478.8 0.0 474.20000000000005 -1.1Q469.6 -2.2 469.6 -2.8000000000000003L505.0 -138.20000000000002Q505.0 -139.8 532.4000000000001 -139.8Q559.8000000000001 -139.8 559.8000000000001 -138.20000000000002L594.4000000000001 -2.6Q594.4000000000001 -1.2000000000000002 585.2 -0.4000000000000001Q576.0 0.4 570.6 0.4ZM518.4 -56.400000000000006H539.4L530.4 -97.80000000000001H529.2Z M643.4 -49.6Q643.4 -30.0 658.2 -30.0Q667.8000000000001 -30.0 674.2 -33.800000000000004Q677.2 -33.800000000000004 679.1 -23.500000000000004Q681.0 -13.200000000000001 681.0 -9.5Q681.0 -5.800000000000001 680.0 -4.6000000000000005Q669.4 2.0 651.0 2.0Q632.6 2.0 619.7 -11.700000000000001Q606.8000000000001 -25.400000000000002 606.8000000000001 -49.1Q606.8000000000001 -72.8 619.5 -87.4Q632.2 -102.0 653.3 -102.0Q674.4 -102.0 682.6 -91.80000000000001Q684.4000000000001 -89.60000000000001 684.4000000000001 -85.30000000000001Q684.4000000000001 -81.0 682.8000000000001 -74.8Q679.2 -62.0 673.4 -60.0Q672.6 -59.800000000000004 671.1 -59.800000000000004Q669.6 -59.800000000000004 667.4 -62.2Q659.6 -70.0 654.9000000000001 -70.0Q650.2 -70.0 646.8 -65.2Q643.4 -60.400000000000006 643.4 -49.6Z M743.2 -0.2Q743.2 1.2000000000000002 725.0000000000001 1.2000000000000002Q706.8000000000001 0.8 706.8000000000001 -0.4V-66.8H701.4000000000001Q698.2 -66.8 696.3000000000001 -70.7Q694.4000000000001 -74.60000000000001 694.4000000000001 -80.4Q694.4000000000001 -102.0 707.2 -102.0Q716.2 -102.0 722.2 -96.5Q728.2 -91.0 728.2 -84.0Q732.4000000000001 -92.2 739.5000000000001 -97.1Q746.6000000000001 -102.0 754.0000000000001 -102.0Q765.6000000000001 -102.0 768.0000000000001 -96.0Q768.6000000000001 -94.4 768.6000000000001 -91.30000000000001Q768.6000000000001 -88.2 766.7 -80.2Q764.8000000000001 -72.2 762.8000000000001 -68.6Q760.8000000000001 -65.0 760.4000000000001 -65.0Q760.0000000000001 -65.0 756.7 -66.5Q753.4000000000001 -68.0 750.8000000000001 -68.0Q743.2 -68.0 743.2 -56.0Z M858.2000000000002 -5.4Q845.6000000000001 2.0 825.8000000000002 2.0Q806.0000000000001 2.0 792.4000000000001 -11.5Q778.8000000000002 -25.0 778.8000000000002 -48.9Q778.8000000000002 -72.8 791.9000000000001 -87.4Q805.0000000000001 -102.0 825.0000000000001 -102.0Q845.0000000000001 -102.0 855.9000000000001 -91.80000000000001Q866.8000000000002 -81.60000000000001 866.8000000000002 -67.0Q866.8000000000002 -34.6 829.6000000000001 -34.6H815.8000000000002Q815.8000000000002 -28.6 819.1000000000001 -26.3Q822.4000000000001 -24.0 828.8000000000002 -24.0Q842.8000000000002 -24.0 855.4000000000001 -30.400000000000002Q855.6000000000001 -30.6 857.2000000000002 -27.6Q862.0000000000001 -19.0 862.0000000000001 -13.1Q862.0000000000001 -7.2 858.2000000000002 -5.4ZM833.2000000000002 -63.2Q833.2000000000002 -71.60000000000001 825.0000000000001 -71.60000000000001Q821.2000000000002 -71.60000000000001 818.5000000000002 -69.30000000000001Q815.8000000000002 -67.0 815.8000000000002 -62.6V-56.400000000000006H826.6000000000001Q833.2000000000002 -56.400000000000006 833.2000000000002 -63.2Z M888.0000000000002 -36.0Q904.2000000000002 -26.200000000000003 913.6000000000001 -26.200000000000003Q919.6000000000001 -26.200000000000003 919.6000000000001 -30.400000000000002Q919.6000000000001 -33.4 909.2000000000002 -38.2Q884.2000000000002 -48.400000000000006 884.2000000000002 -71.60000000000001Q884.2000000000002 -86.4 895.0000000000002 -94.2Q905.8000000000002 -102.0 920.9000000000002 -102.0Q936.0000000000002 -102.0 946.5000000000002 -98.80000000000001Q957.0000000000002 -95.60000000000001 957.0000000000002 -90.4Q957.0000000000002 -86.0 952.7000000000003 -78.80000000000001Q948.4000000000002 -71.60000000000001 946.8000000000002 -71.0Q938.2000000000002 -75.8 928.2000000000002 -75.8Q922.8000000000002 -75.8 922.8000000000002 -72.0Q922.8000000000002 -69.60000000000001 924.9000000000002 -67.9Q927.0000000000002 -66.2 932.6000000000001 -63.7Q938.2000000000002 -61.2 941.9000000000001 -59.2Q945.6000000000001 -57.2 950.2000000000002 -53.6Q959.8000000000002 -46.0 959.8000000000002 -33.800000000000004Q959.8000000000002 -17.8 949.2000000000002 -7.9Q938.6000000000001 2.0 917.2000000000002 2.0Q903.0000000000002 2.0 891.4000000000002 -2.8000000000000003Q879.8000000000002 -7.6000000000000005 879.8000000000002 -16.0Q879.8000000000002 -21.6 882.5000000000002 -27.8Q885.2000000000002 -34.0 888.0000000000002 -36.0Z" transform="translate(0,15.0)" fill="#2d1e10" stroke="#2d1e10" stroke-width="32.0" stroke-linejoin="round"/><path d="M89.80000000000001 -99.0Q88.80000000000001 -99.0 87.5 -100.1Q86.2 -101.2 81.5 -102.5Q76.80000000000001 -103.80000000000001 73.4 -103.80000000000001Q61.800000000000004 -103.80000000000001 54.7 -95.60000000000001Q47.6 -87.4 47.6 -70.5Q47.6 -53.6 54.900000000000006 -45.400000000000006Q62.2 -37.2 73.4 -37.2Q78.0 -37.2 83.7 -38.5Q89.4 -39.800000000000004 91.80000000000001 -42.2Q92.2 -42.6 93.4 -42.6Q94.60000000000001 -42.6 97.9 -38.1Q101.2 -33.6 104.0 -26.3Q106.80000000000001 -19.0 106.80000000000001 -15.0Q106.80000000000001 -7.2 94.80000000000001 -2.6Q82.80000000000001 2.0 66.4 2.0Q40.0 2.0 23.0 -16.6Q6.0 -35.2 6.0 -69.1Q6.0 -103.0 23.5 -122.4Q41.0 -141.8 67.2 -141.8Q81.80000000000001 -141.8 92.9 -137.7Q104.0 -133.6 104.0 -126.6Q104.0 -119.60000000000001 98.7 -109.30000000000001Q93.4 -99.0 89.80000000000001 -99.0Z M133.9 -11.8Q121.4 -25.6 121.4 -50.0Q121.4 -74.4 133.9 -88.2Q146.4 -102.0 167.60000000000002 -102.0Q188.8 -102.0 201.20000000000002 -88.2Q213.60000000000002 -74.4 213.60000000000002 -50.0Q213.60000000000002 -25.6 201.20000000000002 -11.8Q188.8 2.0 167.60000000000002 2.0Q146.4 2.0 133.9 -11.8ZM167.7 -68.60000000000001Q156.4 -68.60000000000001 156.4 -50.2Q156.4 -31.8 167.7 -31.8Q179.0 -31.8 179.0 -50.2Q179.0 -68.60000000000001 167.7 -68.60000000000001Z M231.4 -68.0Q230.0 -68.0 230.0 -76.60000000000001Q230.0 -100.0 233.8 -100.0H297.6Q299.0 -100.0 303.8 -91.2Q308.6 -82.4 308.6 -81.30000000000001Q308.6 -80.2 308.40000000000003 -80.0L269.6 -31.200000000000003L304.40000000000003 -33.6Q307.6 -33.6 307.6 -19.400000000000002Q307.6 -14.0 306.6 -7.0Q305.6 0.0 303.20000000000005 0.0H239.20000000000002Q236.20000000000002 0.0 232.0 -10.0Q227.8 -20.0 227.8 -22.1Q227.8 -24.200000000000003 228.20000000000002 -24.6L266.40000000000003 -69.2Z M319.6 -99.0Q319.6 -101.2 337.90000000000003 -101.2Q356.20000000000005 -101.2 356.8 -99.2L371.20000000000005 -52.0L385.0 -99.60000000000001Q385.8 -101.2 397.40000000000003 -101.2Q424.0 -101.2 422.8 -98.60000000000001L375.8 35.2Q375.6 36.4 364.90000000000003 36.4Q354.20000000000005 36.4 345.0 35.7Q335.8 35.0 336.20000000000005 34.0L353.6 -8.0Z" fill="#2d1e10" stroke="#2d1e10" stroke-width="32.0" stroke-linejoin="round"/><path d="M570.6 0.4Q553.2 0.4 551.8000000000001 -5.2L545.2 -31.0H513.4L507.6 -6.2Q506.40000000000003 0.0 488.40000000000003 0.0Q478.8 0.0 474.20000000000005 -1.1Q469.6 -2.2 469.6 -2.8000000000000003L505.0 -138.20000000000002Q505.0 -139.8 532.4000000000001 -139.8Q559.8000000000001 -139.8 559.8000000000001 -138.20000000000002L594.4000000000001 -2.6Q594.4000000000001 -1.2000000000000002 585.2 -0.4000000000000001Q576.0 0.4 570.6 0.4ZM518.4 -56.400000000000006H539.4L530.4 -97.80000000000001H529.2Z M643.4 -49.6Q643.4 -30.0 658.2 -30.0Q667.8000000000001 -30.0 674.2 -33.800000000000004Q677.2 -33.800000000000004 679.1 -23.500000000000004Q681.0 -13.200000000000001 681.0 -9.5Q681.0 -5.800000000000001 680.0 -4.6000000000000005Q669.4 2.0 651.0 2.0Q632.6 2.0 619.7 -11.700000000000001Q606.8000000000001 -25.400000000000002 606.8000000000001 -49.1Q606.8000000000001 -72.8 619.5 -87.4Q632.2 -102.0 653.3 -102.0Q674.4 -102.0 682.6 -91.80000000000001Q684.4000000000001 -89.60000000000001 684.4000000000001 -85.30000000000001Q684.4000000000001 -81.0 682.8000000000001 -74.8Q679.2 -62.0 673.4 -60.0Q672.6 -59.800000000000004 671.1 -59.800000000000004Q669.6 -59.800000000000004 667.4 -62.2Q659.6 -70.0 654.9000000000001 -70.0Q650.2 -70.0 646.8 -65.2Q643.4 -60.400000000000006 643.4 -49.6Z M743.2 -0.2Q743.2 1.2000000000000002 725.0000000000001 1.2000000000000002Q706.8000000000001 0.8 706.8000000000001 -0.4V-66.8H701.4000000000001Q698.2 -66.8 696.3000000000001 -70.7Q694.4000000000001 -74.60000000000001 694.4000000000001 -80.4Q694.4000000000001 -102.0 707.2 -102.0Q716.2 -102.0 722.2 -96.5Q728.2 -91.0 728.2 -84.0Q732.4000000000001 -92.2 739.5000000000001 -97.1Q746.6000000000001 -102.0 754.0000000000001 -102.0Q765.6000000000001 -102.0 768.0000000000001 -96.0Q768.6000000000001 -94.4 768.6000000000001 -91.30000000000001Q768.6000000000001 -88.2 766.7 -80.2Q764.8000000000001 -72.2 762.8000000000001 -68.6Q760.8000000000001 -65.0 760.4000000000001 -65.0Q760.0000000000001 -65.0 756.7 -66.5Q753.4000000000001 -68.0 750.8000000000001 -68.0Q743.2 -68.0 743.2 -56.0Z M858.2000000000002 -5.4Q845.6000000000001 2.0 825.8000000000002 2.0Q806.0000000000001 2.0 792.4000000000001 -11.5Q778.8000000000002 -25.0 778.8000000000002 -48.9Q778.8000000000002 -72.8 791.9000000000001 -87.4Q805.0000000000001 -102.0 825.0000000000001 -102.0Q845.0000000000001 -102.0 855.9000000000001 -91.80000000000001Q866.8000000000002 -81.60000000000001 866.8000000000002 -67.0Q866.8000000000002 -34.6 829.6000000000001 -34.6H815.8000000000002Q815.8000000000002 -28.6 819.1000000000001 -26.3Q822.4000000000001 -24.0 828.8000000000002 -24.0Q842.8000000000002 -24.0 855.4000000000001 -30.400000000000002Q855.6000000000001 -30.6 857.2000000000002 -27.6Q862.0000000000001 -19.0 862.0000000000001 -13.1Q862.0000000000001 -7.2 858.2000000000002 -5.4ZM833.2000000000002 -63.2Q833.2000000000002 -71.60000000000001 825.0000000000001 -71.60000000000001Q821.2000000000002 -71.60000000000001 818.5000000000002 -69.30000000000001Q815.8000000000002 -67.0 815.8000000000002 -62.6V-56.400000000000006H826.6000000000001Q833.2000000000002 -56.400000000000006 833.2000000000002 -63.2Z M888.0000000000002 -36.0Q904.2000000000002 -26.200000000000003 913.6000000000001 -26.200000000000003Q919.6000000000001 -26.200000000000003 919.6000000000001 -30.400000000000002Q919.6000000000001 -33.4 909.2000000000002 -38.2Q884.2000000000002 -48.400000000000006 884.2000000000002 -71.60000000000001Q884.2000000000002 -86.4 895.0000000000002 -94.2Q905.8000000000002 -102.0 920.9000000000002 -102.0Q936.0000000000002 -102.0 946.5000000000002 -98.80000000000001Q957.0000000000002 -95.60000000000001 957.0000000000002 -90.4Q957.0000000000002 -86.0 952.7000000000003 -78.80000000000001Q948.4000000000002 -71.60000000000001 946.8000000000002 -71.0Q938.2000000000002 -75.8 928.2000000000002 -75.8Q922.8000000000002 -75.8 922.8000000000002 -72.0Q922.8000000000002 -69.60000000000001 924.9000000000002 -67.9Q927.0000000000002 -66.2 932.6000000000001 -63.7Q938.2000000000002 -61.2 941.9000000000001 -59.2Q945.6000000000001 -57.2 950.2000000000002 -53.6Q959.8000000000002 -46.0 959.8000000000002 -33.800000000000004Q959.8000000000002 -17.8 949.2000000000002 -7.9Q938.6000000000001 2.0 917.2000000000002 2.0Q903.0000000000002 2.0 891.4000000000002 -2.8000000000000003Q879.8000000000002 -7.6000000000000005 879.8000000000002 -16.0Q879.8000000000002 -21.6 882.5000000000002 -27.8Q885.2000000000002 -34.0 888.0000000000002 -36.0Z" fill="#2d1e10" stroke="#2d1e10" stroke-width="32.0" stroke-linejoin="round"/><path d="M89.80000000000001 -99.0Q88.80000000000001 -99.0 87.5 -100.1Q86.2 -101.2 81.5 -102.5Q76.80000000000001 -103.80000000000001 73.4 -103.80000000000001Q61.800000000000004 -103.80000000000001 54.7 -95.60000000000001Q47.6 -87.4 47.6 -70.5Q47.6 -53.6 54.900000000000006 -45.400000000000006Q62.2 -37.2 73.4 -37.2Q78.0 -37.2 83.7 -38.5Q89.4 -39.800000000000004 91.80000000000001 -42.2Q92.2 -42.6 93.4 -42.6Q94.60000000000001 -42.6 97.9 -38.1Q101.2 -33.6 104.0 -26.3Q106.80000000000001 -19.0 106.80000000000001 -15.0Q106.80000000000001 -7.2 94.80000000000001 -2.6Q82.80000000000001 2.0 66.4 2.0Q40.0 2.0 23.0 -16.6Q6.0 -35.2 6.0 -69.1Q6.0 -103.0 23.5 -122.4Q41.0 -141.8 67.2 -141.8Q81.80000000000001 -141.8 92.9 -137.7Q104.0 -133.6 104.0 -126.6Q104.0 -119.60000000000001 98.7 -109.30000000000001Q93.4 -99.0 89.80000000000001 -99.0Z M133.9 -11.8Q121.4 -25.6 121.4 -50.0Q121.4 -74.4 133.9 -88.2Q146.4 -102.0 167.60000000000002 -102.0Q188.8 -102.0 201.20000000000002 -88.2Q213.60000000000002 -74.4 213.60000000000002 -50.0Q213.60000000000002 -25.6 201.20000000000002 -11.8Q188.8 2.0 167.60000000000002 2.0Q146.4 2.0 133.9 -11.8ZM167.7 -68.60000000000001Q156.4 -68.60000000000001 156.4 -50.2Q156.4 -31.8 167.7 -31.8Q179.0 -31.8 179.0 -50.2Q179.0 -68.60000000000001 167.7 -68.60000000000001Z M231.4 -68.0Q230.0 -68.0 230.0 -76.60000000000001Q230.0 -100.0 233.8 -100.0H297.6Q299.0 -100.0 303.8 -91.2Q308.6 -82.4 308.6 -81.30000000000001Q308.6 -80.2 308.40000000000003 -80.0L269.6 -31.200000000000003L304.40000000000003 -33.6Q307.6 -33.6 307.6 -19.400000000000002Q307.6 -14.0 306.6 -7.0Q305.6 0.0 303.20000000000005 0.0H239.20000000000002Q236.20000000000002 0.0 232.0 -10.0Q227.8 -20.0 227.8 -22.1Q227.8 -24.200000000000003 228.20000000000002 -24.6L266.40000000000003 -69.2Z M319.6 -99.0Q319.6 -101.2 337.90000000000003 -101.2Q356.20000000000005 -101.2 356.8 -99.2L371.20000000000005 -52.0L385.0 -99.60000000000001Q385.8 -101.2 397.40000000000003 -101.2Q424.0 -101.2 422.8 -98.60000000000001L375.8 35.2Q375.6 36.4 364.90000000000003 36.4Q354.20000000000005 36.4 345.0 35.7Q335.8 35.0 336.20000000000005 34.0L353.6 -8.0Z" fill="url(#lgcream)"/><path d="M570.6 0.4Q553.2 0.4 551.8000000000001 -5.2L545.2 -31.0H513.4L507.6 -6.2Q506.40000000000003 0.0 488.40000000000003 0.0Q478.8 0.0 474.20000000000005 -1.1Q469.6 -2.2 469.6 -2.8000000000000003L505.0 -138.20000000000002Q505.0 -139.8 532.4000000000001 -139.8Q559.8000000000001 -139.8 559.8000000000001 -138.20000000000002L594.4000000000001 -2.6Q594.4000000000001 -1.2000000000000002 585.2 -0.4000000000000001Q576.0 0.4 570.6 0.4ZM518.4 -56.400000000000006H539.4L530.4 -97.80000000000001H529.2Z M643.4 -49.6Q643.4 -30.0 658.2 -30.0Q667.8000000000001 -30.0 674.2 -33.800000000000004Q677.2 -33.800000000000004 679.1 -23.500000000000004Q681.0 -13.200000000000001 681.0 -9.5Q681.0 -5.800000000000001 680.0 -4.6000000000000005Q669.4 2.0 651.0 2.0Q632.6 2.0 619.7 -11.700000000000001Q606.8000000000001 -25.400000000000002 606.8000000000001 -49.1Q606.8000000000001 -72.8 619.5 -87.4Q632.2 -102.0 653.3 -102.0Q674.4 -102.0 682.6 -91.80000000000001Q684.4000000000001 -89.60000000000001 684.4000000000001 -85.30000000000001Q684.4000000000001 -81.0 682.8000000000001 -74.8Q679.2 -62.0 673.4 -60.0Q672.6 -59.800000000000004 671.1 -59.800000000000004Q669.6 -59.800000000000004 667.4 -62.2Q659.6 -70.0 654.9000000000001 -70.0Q650.2 -70.0 646.8 -65.2Q643.4 -60.400000000000006 643.4 -49.6Z M743.2 -0.2Q743.2 1.2000000000000002 725.0000000000001 1.2000000000000002Q706.8000000000001 0.8 706.8000000000001 -0.4V-66.8H701.4000000000001Q698.2 -66.8 696.3000000000001 -70.7Q694.4000000000001 -74.60000000000001 694.4000000000001 -80.4Q694.4000000000001 -102.0 707.2 -102.0Q716.2 -102.0 722.2 -96.5Q728.2 -91.0 728.2 -84.0Q732.4000000000001 -92.2 739.5000000000001 -97.1Q746.6000000000001 -102.0 754.0000000000001 -102.0Q765.6000000000001 -102.0 768.0000000000001 -96.0Q768.6000000000001 -94.4 768.6000000000001 -91.30000000000001Q768.6000000000001 -88.2 766.7 -80.2Q764.8000000000001 -72.2 762.8000000000001 -68.6Q760.8000000000001 -65.0 760.4000000000001 -65.0Q760.0000000000001 -65.0 756.7 -66.5Q753.4000000000001 -68.0 750.8000000000001 -68.0Q743.2 -68.0 743.2 -56.0Z M858.2000000000002 -5.4Q845.6000000000001 2.0 825.8000000000002 2.0Q806.0000000000001 2.0 792.4000000000001 -11.5Q778.8000000000002 -25.0 778.8000000000002 -48.9Q778.8000000000002 -72.8 791.9000000000001 -87.4Q805.0000000000001 -102.0 825.0000000000001 -102.0Q845.0000000000001 -102.0 855.9000000000001 -91.80000000000001Q866.8000000000002 -81.60000000000001 866.8000000000002 -67.0Q866.8000000000002 -34.6 829.6000000000001 -34.6H815.8000000000002Q815.8000000000002 -28.6 819.1000000000001 -26.3Q822.4000000000001 -24.0 828.8000000000002 -24.0Q842.8000000000002 -24.0 855.4000000000001 -30.400000000000002Q855.6000000000001 -30.6 857.2000000000002 -27.6Q862.0000000000001 -19.0 862.0000000000001 -13.1Q862.0000000000001 -7.2 858.2000000000002 -5.4ZM833.2000000000002 -63.2Q833.2000000000002 -71.60000000000001 825.0000000000001 -71.60000000000001Q821.2000000000002 -71.60000000000001 818.5000000000002 -69.30000000000001Q815.8000000000002 -67.0 815.8000000000002 -62.6V-56.400000000000006H826.6000000000001Q833.2000000000002 -56.400000000000006 833.2000000000002 -63.2Z M888.0000000000002 -36.0Q904.2000000000002 -26.200000000000003 913.6000000000001 -26.200000000000003Q919.6000000000001 -26.200000000000003 919.6000000000001 -30.400000000000002Q919.6000000000001 -33.4 909.2000000000002 -38.2Q884.2000000000002 -48.400000000000006 884.2000000000002 -71.60000000000001Q884.2000000000002 -86.4 895.0000000000002 -94.2Q905.8000000000002 -102.0 920.9000000000002 -102.0Q936.0000000000002 -102.0 946.5000000000002 -98.80000000000001Q957.0000000000002 -95.60000000000001 957.0000000000002 -90.4Q957.0000000000002 -86.0 952.7000000000003 -78.80000000000001Q948.4000000000002 -71.60000000000001 946.8000000000002 -71.0Q938.2000000000002 -75.8 928.2000000000002 -75.8Q922.8000000000002 -75.8 922.8000000000002 -72.0Q922.8000000000002 -69.60000000000001 924.9000000000002 -67.9Q927.0000000000002 -66.2 932.6000000000001 -63.7Q938.2000000000002 -61.2 941.9000000000001 -59.2Q945.6000000000001 -57.2 950.2000000000002 -53.6Q959.8000000000002 -46.0 959.8000000000002 -33.800000000000004Q959.8000000000002 -17.8 949.2000000000002 -7.9Q938.6000000000001 2.0 917.2000000000002 2.0Q903.0000000000002 2.0 891.4000000000002 -2.8000000000000003Q879.8000000000002 -7.6000000000000005 879.8000000000002 -16.0Q879.8000000000002 -21.6 882.5000000000002 -27.8Q885.2000000000002 -34.0 888.0000000000002 -36.0Z" fill="url(#lgcream)"/><path d="M89.80000000000001 -99.0Q88.80000000000001 -99.0 87.5 -100.1Q86.2 -101.2 81.5 -102.5Q76.80000000000001 -103.80000000000001 73.4 -103.80000000000001Q61.800000000000004 -103.80000000000001 54.7 -95.60000000000001Q47.6 -87.4 47.6 -70.5Q47.6 -53.6 54.900000000000006 -45.400000000000006Q62.2 -37.2 73.4 -37.2Q78.0 -37.2 83.7 -38.5Q89.4 -39.800000000000004 91.80000000000001 -42.2Q92.2 -42.6 93.4 -42.6Q94.60000000000001 -42.6 97.9 -38.1Q101.2 -33.6 104.0 -26.3Q106.80000000000001 -19.0 106.80000000000001 -15.0Q106.80000000000001 -7.2 94.80000000000001 -2.6Q82.80000000000001 2.0 66.4 2.0Q40.0 2.0 23.0 -16.6Q6.0 -35.2 6.0 -69.1Q6.0 -103.0 23.5 -122.4Q41.0 -141.8 67.2 -141.8Q81.80000000000001 -141.8 92.9 -137.7Q104.0 -133.6 104.0 -126.6Q104.0 -119.60000000000001 98.7 -109.30000000000001Q93.4 -99.0 89.80000000000001 -99.0Z M133.9 -11.8Q121.4 -25.6 121.4 -50.0Q121.4 -74.4 133.9 -88.2Q146.4 -102.0 167.60000000000002 -102.0Q188.8 -102.0 201.20000000000002 -88.2Q213.60000000000002 -74.4 213.60000000000002 -50.0Q213.60000000000002 -25.6 201.20000000000002 -11.8Q188.8 2.0 167.60000000000002 2.0Q146.4 2.0 133.9 -11.8ZM167.7 -68.60000000000001Q156.4 -68.60000000000001 156.4 -50.2Q156.4 -31.8 167.7 -31.8Q179.0 -31.8 179.0 -50.2Q179.0 -68.60000000000001 167.7 -68.60000000000001Z M231.4 -68.0Q230.0 -68.0 230.0 -76.60000000000001Q230.0 -100.0 233.8 -100.0H297.6Q299.0 -100.0 303.8 -91.2Q308.6 -82.4 308.6 -81.30000000000001Q308.6 -80.2 308.40000000000003 -80.0L269.6 -31.200000000000003L304.40000000000003 -33.6Q307.6 -33.6 307.6 -19.400000000000002Q307.6 -14.0 306.6 -7.0Q305.6 0.0 303.20000000000005 0.0H239.20000000000002Q236.20000000000002 0.0 232.0 -10.0Q227.8 -20.0 227.8 -22.1Q227.8 -24.200000000000003 228.20000000000002 -24.6L266.40000000000003 -69.2Z M319.6 -99.0Q319.6 -101.2 337.90000000000003 -101.2Q356.20000000000005 -101.2 356.8 -99.2L371.20000000000005 -52.0L385.0 -99.60000000000001Q385.8 -101.2 397.40000000000003 -101.2Q424.0 -101.2 422.8 -98.60000000000001L375.8 35.2Q375.6 36.4 364.90000000000003 36.4Q354.20000000000005 36.4 345.0 35.7Q335.8 35.0 336.20000000000005 34.0L353.6 -8.0Z" fill="url(#lgshade)" /><path d="M570.6 0.4Q553.2 0.4 551.8000000000001 -5.2L545.2 -31.0H513.4L507.6 -6.2Q506.40000000000003 0.0 488.40000000000003 0.0Q478.8 0.0 474.20000000000005 -1.1Q469.6 -2.2 469.6 -2.8000000000000003L505.0 -138.20000000000002Q505.0 -139.8 532.4000000000001 -139.8Q559.8000000000001 -139.8 559.8000000000001 -138.20000000000002L594.4000000000001 -2.6Q594.4000000000001 -1.2000000000000002 585.2 -0.4000000000000001Q576.0 0.4 570.6 0.4ZM518.4 -56.400000000000006H539.4L530.4 -97.80000000000001H529.2Z M643.4 -49.6Q643.4 -30.0 658.2 -30.0Q667.8000000000001 -30.0 674.2 -33.800000000000004Q677.2 -33.800000000000004 679.1 -23.500000000000004Q681.0 -13.200000000000001 681.0 -9.5Q681.0 -5.800000000000001 680.0 -4.6000000000000005Q669.4 2.0 651.0 2.0Q632.6 2.0 619.7 -11.700000000000001Q606.8000000000001 -25.400000000000002 606.8000000000001 -49.1Q606.8000000000001 -72.8 619.5 -87.4Q632.2 -102.0 653.3 -102.0Q674.4 -102.0 682.6 -91.80000000000001Q684.4000000000001 -89.60000000000001 684.4000000000001 -85.30000000000001Q684.4000000000001 -81.0 682.8000000000001 -74.8Q679.2 -62.0 673.4 -60.0Q672.6 -59.800000000000004 671.1 -59.800000000000004Q669.6 -59.800000000000004 667.4 -62.2Q659.6 -70.0 654.9000000000001 -70.0Q650.2 -70.0 646.8 -65.2Q643.4 -60.400000000000006 643.4 -49.6Z M743.2 -0.2Q743.2 1.2000000000000002 725.0000000000001 1.2000000000000002Q706.8000000000001 0.8 706.8000000000001 -0.4V-66.8H701.4000000000001Q698.2 -66.8 696.3000000000001 -70.7Q694.4000000000001 -74.60000000000001 694.4000000000001 -80.4Q694.4000000000001 -102.0 707.2 -102.0Q716.2 -102.0 722.2 -96.5Q728.2 -91.0 728.2 -84.0Q732.4000000000001 -92.2 739.5000000000001 -97.1Q746.6000000000001 -102.0 754.0000000000001 -102.0Q765.6000000000001 -102.0 768.0000000000001 -96.0Q768.6000000000001 -94.4 768.6000000000001 -91.30000000000001Q768.6000000000001 -88.2 766.7 -80.2Q764.8000000000001 -72.2 762.8000000000001 -68.6Q760.8000000000001 -65.0 760.4000000000001 -65.0Q760.0000000000001 -65.0 756.7 -66.5Q753.4000000000001 -68.0 750.8000000000001 -68.0Q743.2 -68.0 743.2 -56.0Z M858.2000000000002 -5.4Q845.6000000000001 2.0 825.8000000000002 2.0Q806.0000000000001 2.0 792.4000000000001 -11.5Q778.8000000000002 -25.0 778.8000000000002 -48.9Q778.8000000000002 -72.8 791.9000000000001 -87.4Q805.0000000000001 -102.0 825.0000000000001 -102.0Q845.0000000000001 -102.0 855.9000000000001 -91.80000000000001Q866.8000000000002 -81.60000000000001 866.8000000000002 -67.0Q866.8000000000002 -34.6 829.6000000000001 -34.6H815.8000000000002Q815.8000000000002 -28.6 819.1000000000001 -26.3Q822.4000000000001 -24.0 828.8000000000002 -24.0Q842.8000000000002 -24.0 855.4000000000001 -30.400000000000002Q855.6000000000001 -30.6 857.2000000000002 -27.6Q862.0000000000001 -19.0 862.0000000000001 -13.1Q862.0000000000001 -7.2 858.2000000000002 -5.4ZM833.2000000000002 -63.2Q833.2000000000002 -71.60000000000001 825.0000000000001 -71.60000000000001Q821.2000000000002 -71.60000000000001 818.5000000000002 -69.30000000000001Q815.8000000000002 -67.0 815.8000000000002 -62.6V-56.400000000000006H826.6000000000001Q833.2000000000002 -56.400000000000006 833.2000000000002 -63.2Z M888.0000000000002 -36.0Q904.2000000000002 -26.200000000000003 913.6000000000001 -26.200000000000003Q919.6000000000001 -26.200000000000003 919.6000000000001 -30.400000000000002Q919.6000000000001 -33.4 909.2000000000002 -38.2Q884.2000000000002 -48.400000000000006 884.2000000000002 -71.60000000000001Q884.2000000000002 -86.4 895.0000000000002 -94.2Q905.8000000000002 -102.0 920.9000000000002 -102.0Q936.0000000000002 -102.0 946.5000000000002 -98.80000000000001Q957.0000000000002 -95.60000000000001 957.0000000000002 -90.4Q957.0000000000002 -86.0 952.7000000000003 -78.80000000000001Q948.4000000000002 -71.60000000000001 946.8000000000002 -71.0Q938.2000000000002 -75.8 928.2000000000002 -75.8Q922.8000000000002 -75.8 922.8000000000002 -72.0Q922.8000000000002 -69.60000000000001 924.9000000000002 -67.9Q927.0000000000002 -66.2 932.6000000000001 -63.7Q938.2000000000002 -61.2 941.9000000000001 -59.2Q945.6000000000001 -57.2 950.2000000000002 -53.6Q959.8000000000002 -46.0 959.8000000000002 -33.800000000000004Q959.8000000000002 -17.8 949.2000000000002 -7.9Q938.6000000000001 2.0 917.2000000000002 2.0Q903.0000000000002 2.0 891.4000000000002 -2.8000000000000003Q879.8000000000002 -7.6000000000000005 879.8000000000002 -16.0Q879.8000000000002 -21.6 882.5000000000002 -27.8Q885.2000000000002 -34.0 888.0000000000002 -36.0Z" fill="url(#lgshade)" /><g transform="translate(534.1,-141.20000000000002) scale(1.15)"><path d="M0,0 C0,-14 2,-26 0,-40" stroke="#2d1e10" stroke-width="18" fill="none" stroke-linecap="round"/><path d="M0,-34 C-10,-62 -46,-70 -62,-56 C-50,-30 -18,-26 0,-34Z" fill="#6cc644" stroke="#2d1e10" stroke-width="10" stroke-linejoin="round"/><path d="M0,-38 C8,-74 46,-86 66,-70 C54,-40 20,-32 0,-38Z" fill="#7cc85a" stroke="#2d1e10" stroke-width="10" stroke-linejoin="round"/><path d="M0,0 C0,-14 2,-26 0,-40" stroke="#3f8f22" stroke-width="8" fill="none" stroke-linecap="round"/><path d="M-46,-58 C-34,-56 -20,-48 -10,-40" stroke="#a4e07f" stroke-width="5" fill="none" stroke-linecap="round"/><path d="M50,-72 C34,-66 20,-56 10,-44" stroke="#b6ea8f" stroke-width="5" fill="none" stroke-linecap="round"/></g></svg>